<?xml version="1.0" standalone="no"?>
<!DOCTYPE svg PUBLIC "-//W3C//DTD SVG 20010904//EN"
 "http://www.w3.org/TR/2001/REC-SVG-20010904/DTD/svg10.dtd">
<svg version="1.0" xmlns="http://www.w3.org/2000/svg"
 width="260.000000pt" height="321.000000pt" viewBox="0 0 260.000000 321.000000"
 preserveAspectRatio="xMidYMid meet">
<metadata>
Created by potrace 1.16, written by Peter Selinger 2001-2019
</metadata>
<g transform="translate(0.000000,321.000000) scale(0.100000,-0.100000)"
fill="#000000" stroke="none">
<path d="M0 1605 l0 -1605 1300 0 1300 0 0 1605 0 1605 -1300 0 -1300 0 0
-1605z m1250 1505 c0 -5 7 -10 16 -10 8 0 12 5 9 10 -3 6 1 10 9 10 9 0 15 -3
15 -7 -4 -25 3 -43 16 -43 9 0 15 -9 15 -25 0 -14 5 -25 10 -25 6 0 10 -6 10
-14 0 -8 7 -16 15 -20 8 -3 15 -15 15 -26 0 -11 7 -20 15 -20 8 0 15 -7 15
-15 0 -8 5 -15 10 -15 6 0 10 -11 10 -25 0 -16 6 -25 15 -25 8 0 15 -4 15 -10
0 -5 7 -10 15 -10 8 0 15 -7 15 -15 0 -10 11 -15 35 -15 24 0 35 -5 35 -15 0
-8 7 -15 15 -15 8 0 15 -4 15 -10 0 -5 7 -10 15 -10 8 0 15 -7 15 -15 0 -8 9
-15 20 -15 17 0 20 -7 20 -40 0 -36 3 -40 25 -40 14 0 25 -4 25 -10 0 -5 7
-10 15 -10 11 0 15 -11 15 -36 0 -24 4 -33 12 -28 7 4 8 3 4 -4 -9 -15 -46
-16 -46 -1 0 14 -25 39 -39 39 -6 0 -11 7 -11 15 0 8 -5 15 -11 15 -7 0 -10
12 -7 29 3 21 1 28 -9 24 -7 -3 -13 2 -13 11 0 11 -9 16 -30 16 -16 0 -30 5
-30 10 0 6 -16 10 -35 10 -24 0 -35 5 -35 15 0 8 -7 15 -15 15 -8 0 -15 5 -15
10 0 6 -11 10 -25 10 -21 0 -25 5 -25 30 0 20 -5 30 -15 30 -9 0 -15 9 -15 25
0 16 -6 25 -15 25 -11 0 -15 -11 -15 -40 0 -22 -4 -40 -10 -40 -5 0 -10 -18
-10 -40 0 -22 5 -40 10 -40 6 0 10 -18 10 -40 0 -22 -4 -40 -10 -40 -5 0 -10
7 -10 15 0 8 -7 15 -15 15 -9 0 -15 9 -15 25 0 16 -6 25 -15 25 -11 0 -15 11
-15 40 0 22 -4 40 -10 40 -5 0 -10 7 -10 15 0 9 9 15 25 15 14 0 25 5 25 10 0
6 -7 10 -15 10 -9 0 -15 9 -15 25 0 14 -4 25 -10 25 -5 0 -10 -11 -10 -25 0
-24 -3 -25 -55 -25 -30 0 -55 -4 -55 -10 0 -5 -9 -10 -19 -10 -11 0 -27 -3
-36 -6 -13 -5 -14 -8 -3 -15 10 -7 9 -9 -4 -9 -10 0 -18 7 -18 15 0 8 7 15 15
15 8 0 15 5 15 10 0 6 7 10 15 10 8 0 15 7 15 15 0 8 5 15 10 15 6 0 10 6 10
14 0 8 5 18 12 22 7 4 8 3 4 -4 -4 -7 -2 -12 3 -12 6 0 11 14 11 30 0 20 -5
30 -15 30 -8 0 -15 -7 -15 -15 0 -8 -4 -15 -10 -15 -5 0 -10 -7 -10 -15 0 -8
-7 -15 -15 -15 -8 0 -15 -4 -15 -10 0 -5 -7 -10 -15 -10 -8 0 -15 5 -15 10 0
6 7 10 15 10 8 0 15 7 15 15 0 8 7 15 15 15 8 0 15 6 15 13 0 17 43 43 48 28
10 -30 52 5 52 43 0 16 6 26 15 26 9 0 15 9 15 25 0 16 -6 25 -15 25 -8 0 -15
5 -15 10 0 6 7 10 15 10 8 0 15 -4 15 -10z m-330 -315 c0 -8 5 -15 10 -15 6 0
10 7 10 15 0 9 9 15 25 15 14 0 25 -5 25 -11 0 -14 25 -39 39 -39 6 0 11 -5
11 -11 0 -19 28 -39 54 -39 16 0 26 -6 26 -14 0 -8 7 -17 16 -20 8 -3 12 -10
9 -16 -3 -5 1 -10 9 -10 10 0 16 -9 16 -25 0 -20 5 -25 25 -25 14 0 24 -3 24
-7 -4 -25 3 -43 16 -43 9 0 15 -9 15 -25 0 -14 -5 -25 -11 -25 -14 0 -39 25
-39 39 0 10 -29 16 -52 12 -5 0 -8 9 -8 22 0 13 -6 29 -12 36 -10 11 -10 13 0
7 6 -4 12 -2 12 3 0 6 -21 11 -50 11 -27 0 -50 5 -50 10 0 6 -7 10 -15 10 -8
0 -15 7 -15 15 0 10 -11 15 -35 15 -31 0 -35 -3 -35 -25 0 -14 -4 -25 -10 -25
-5 0 -10 -7 -10 -15 0 -8 -7 -15 -15 -15 -8 0 -15 -4 -15 -10 0 -5 -7 -10 -15
-10 -8 0 -15 -7 -15 -16 0 -10 -8 -15 -22 -14 -39 3 -48 1 -48 -15 0 -8 -7
-15 -15 -15 -8 0 -15 -4 -15 -10 0 -5 -11 -10 -25 -10 -16 0 -25 -6 -25 -15 0
-10 -10 -15 -30 -15 -22 0 -30 5 -29 18 0 10 3 12 6 5 5 -14 24 -18 22 -5 -3
20 2 32 16 32 8 0 15 7 15 15 0 8 5 15 10 15 6 0 10 7 10 15 0 8 7 15 15 15 8
0 15 5 15 10 0 6 7 10 15 10 8 0 15 5 15 11 0 14 25 39 39 39 6 0 11 7 11 15
0 9 9 15 25 15 20 0 25 5 25 25 0 16 6 25 15 25 9 0 15 9 15 24 0 29 -18 44
-26 22 -3 -9 -12 -16 -20 -16 -8 0 -14 -7 -14 -15 0 -8 -4 -15 -10 -15 -26 0
-1 40 33 53 10 4 15 11 12 17 -3 5 1 10 9 10 9 0 16 -7 16 -15z m380 -390 c0
-8 5 -15 11 -15 6 0 17 -6 25 -14 8 -8 14 -19 14 -25 0 -6 7 -11 15 -11 8 0
15 -4 15 -10 0 -5 7 -10 15 -10 8 0 15 -7 15 -15 0 -8 5 -15 10 -15 6 0 10 -7
10 -15 0 -8 7 -15 15 -15 8 0 15 -4 15 -10 0 -5 7 -10 15 -10 8 0 15 -5 15
-11 0 -14 25 -39 39 -39 6 0 11 -7 11 -15 0 -9 9 -15 25 -15 23 0 25 -4 25
-40 0 -29 4 -40 15 -40 12 0 15 -15 15 -75 l0 -75 -80 0 c-47 0 -80 4 -80 10
0 6 7 10 15 10 9 0 15 9 15 25 0 14 5 25 10 25 6 0 10 13 10 30 0 17 7 33 18
39 16 10 16 10 0 11 -10 0 -18 7 -18 15 0 14 -11 19 -37 16 -7 -1 -13 3 -13 9
0 5 -7 10 -15 10 -8 0 -15 7 -15 15 0 8 -4 15 -10 15 -5 0 -10 7 -10 15 0 8
-7 15 -15 15 -8 0 -15 5 -15 10 0 6 -7 10 -15 10 -8 0 -15 5 -15 11 0 14 -25
39 -39 39 -6 0 -11 7 -11 15 0 9 -9 15 -25 15 -16 0 -25 -6 -25 -15 0 -8 -5
-15 -11 -15 -14 0 -39 -25 -39 -39 0 -6 -7 -11 -15 -11 -8 0 -15 -4 -15 -10 0
-5 -7 -10 -15 -10 -8 0 -15 -7 -15 -15 0 -8 -4 -15 -10 -15 -5 0 -10 -7 -10
-15 0 -8 -7 -15 -15 -15 -8 0 -15 -4 -15 -10 0 -5 -7 -10 -15 -10 -8 0 -15 -7
-15 -15 0 -8 -4 -15 -10 -15 -5 0 -10 -18 -10 -40 0 -22 5 -40 10 -40 6 0 10
-11 10 -25 0 -16 6 -25 15 -25 8 0 15 -4 15 -10 0 -6 -32 -10 -75 -10 l-75 0
0 75 c0 60 3 75 15 75 11 0 15 11 15 40 0 33 3 40 20 40 11 0 20 7 20 15 0 8
5 15 11 15 14 0 39 25 39 39 0 6 7 11 15 11 8 0 15 5 15 10 0 6 7 10 15 10 8
0 15 7 15 15 0 8 5 15 10 15 6 0 10 7 10 15 0 8 7 15 15 15 8 0 15 5 15 10 0
6 7 10 15 10 8 0 15 5 15 11 0 14 25 39 39 39 6 0 11 7 11 15 0 9 9 15 25 15
16 0 25 -6 25 -15z m206 -620 c-4 -10 1 -15 14 -15 15 0 20 -7 20 -25 0 -14 5
-25 10 -25 6 0 10 -18 10 -40 0 -29 4 -40 15 -40 12 0 15 -13 15 -55 0 -43 3
-55 16 -55 8 0 12 -4 9 -10 -11 -18 -50 -11 -63 11 -8 12 -9 18 -3 14 6 -3 11
-1 11 4 0 11 -13 15 -37 12 -7 -1 -13 3 -13 9 0 21 -35 45 -65 44 -16 -1 -45
-2 -64 -3 -33 -1 -33 -1 -30 -45 3 -34 1 -42 -10 -38 -9 4 -12 1 -7 -7 6 -9
-3 -11 -36 -9 -42 3 -43 4 -46 41 -3 32 -7 37 -28 37 -15 0 -24 -6 -24 -15 0
-8 5 -15 10 -15 6 0 10 -11 10 -24 0 -23 -4 -25 -69 -28 -40 -2 -67 1 -63 6 3
5 -3 6 -14 3 -18 -7 -18 -6 -1 7 9 7 17 18 17 25 0 6 7 11 15 11 8 0 15 7 15
15 0 9 9 15 24 15 25 0 37 15 28 38 -6 17 -32 15 -32 -3 0 -9 -9 -15 -25 -15
-20 0 -25 -5 -25 -25 0 -23 -3 -25 -50 -25 l-50 0 0 55 c0 30 5 55 10 55 6 0
10 11 10 25 0 20 5 25 25 25 16 0 25 -6 25 -15 0 -8 7 -15 15 -15 8 0 15 -4
15 -10 0 -5 25 -10 55 -10 30 0 55 5 55 10 0 6 11 10 25 10 20 0 25 -5 25 -25
0 -14 5 -25 11 -25 6 0 9 7 5 15 -4 10 1 15 14 15 11 0 20 5 20 10 0 6 11 10
25 10 16 0 25 6 25 15 0 8 7 15 15 15 9 0 15 -9 15 -25 0 -15 6 -25 14 -25 8
0 16 -10 18 -22 2 -12 10 -23 18 -25 13 -4 13 -3 0 6 -13 9 -13 11 1 11 8 0
20 -5 27 -12 9 -9 12 -9 12 3 0 12 2 12 10 -1 7 -11 10 -6 10 22 0 20 5 40 10
43 6 3 10 12 10 18 0 7 -4 6 -10 -3 -8 -12 -10 -11 -10 8 0 13 -6 22 -15 22
-8 0 -15 7 -15 15 0 8 6 15 14 15 8 0 16 7 20 15 3 8 8 15 12 15 3 0 4 -7 0
-15z m-1110 -587 c4 -6 3 -13 -3 -15 -13 -5 5 -84 21 -95 7 -5 7 -8 -2 -8 -10
0 -10 -5 -2 -20 6 -11 7 -20 3 -20 -4 0 1 -7 11 -15 12 -9 15 -15 7 -15 -9 0
-11 -6 -6 -17 4 -10 8 -25 9 -33 2 -8 8 -15 14 -15 6 0 14 -4 19 -9 4 -5 3 -6
-4 -2 -23 13 -21 -13 10 -142 l32 -131 64 262 c35 144 68 268 73 275 11 12 94
17 122 6 9 -3 13 -11 9 -18 -12 -18 -12 -36 -2 -36 6 0 8 -4 5 -9 -3 -4 3 -39
14 -77 10 -38 20 -80 22 -94 2 -14 7 -31 12 -38 4 -7 5 -16 2 -19 -3 -3 -2
-11 3 -17 5 -6 16 -47 26 -91 9 -44 21 -84 25 -89 5 -5 6 -14 4 -21 -3 -7 -1
-15 4 -19 5 -3 9 0 9 7 1 7 17 82 38 167 20 85 40 182 45 215 4 33 13 79 19
103 l12 42 54 0 c49 0 81 -13 54 -22 -7 -2 -13 -13 -14 -24 -1 -10 -7 -31 -13
-45 -6 -14 -12 -40 -15 -57 -3 -17 -8 -35 -11 -40 -3 -4 -7 -19 -10 -33 -8
-38 -13 -60 -31 -124 -25 -92 -29 -118 -14 -110 8 5 10 4 5 -4 -4 -6 -11 -9
-16 -6 -8 5 -14 -15 -24 -92 -2 -17 -7 -36 -10 -42 -4 -5 -2 -12 4 -16 24 -15
-6 -25 -74 -25 -47 0 -77 5 -84 13 -13 15 -113 394 -113 425 1 44 -18 21 -29
-35 -6 -32 -15 -68 -20 -81 -14 -31 -12 -45 3 -36 7 5 6 1 -3 -10 -18 -23 -71
-235 -64 -258 5 -16 -3 -18 -75 -18 -44 0 -83 4 -86 10 -20 32 -126 472 -131
545 l-7 85 51 0 c29 0 54 -5 58 -12z m1179 3 c3 -5 0 -13 -6 -16 -5 -4 -8 -13
-5 -21 3 -8 1 -14 -4 -14 -6 0 -6 -9 0 -25 l10 -25 -108 0 c-64 0 -112 4 -119
11 -7 7 -11 -18 -12 -88 l-2 -98 118 3 c103 3 115 2 105 -11 -13 -15 -12 -60
1 -73 17 -17 -12 -24 -102 -24 -62 0 -101 4 -109 12 -9 9 -12 -15 -12 -108 0
-78 4 -124 12 -132 16 -16 -8 -24 -68 -20 l-49 3 -3 304 c-2 216 1 308 9 317
9 11 49 14 175 14 90 0 165 -4 169 -9z m289 -12 c19 -15 24 -25 17 -32 -7 -7
-5 -15 7 -24 9 -8 11 -11 3 -7 -15 7 -13 1 17 -79 10 -26 22 -44 27 -40 4 5 5
2 1 -5 -9 -15 2 -54 14 -47 4 3 7 -3 6 -12 -2 -10 1 -25 5 -33 11 -21 21 -52
26 -74 2 -11 8 -25 13 -31 5 -7 8 -14 5 -17 -3 -3 1 -11 10 -18 9 -7 17 -11
19 -9 2 2 34 85 71 184 104 274 97 265 190 265 65 0 82 -6 97 -34 10 -19 10
-20 -6 -7 -16 14 -17 -3 -14 -292 l3 -307 -42 0 c-23 0 -44 4 -47 9 -7 10 -7
535 -1 576 l5 30 -11 -30 c-7 -16 -15 -34 -19 -40 -4 -5 -6 -20 -5 -32 1 -12
-2 -20 -5 -18 -4 3 -15 -19 -24 -47 -9 -28 -46 -131 -81 -230 -36 -98 -64
-187 -63 -196 3 -14 -6 -17 -57 -17 l-60 0 -89 255 c-49 140 -92 275 -96 300
-4 25 -8 41 -9 35 -6 -27 -11 -540 -5 -557 3 -10 10 -16 15 -13 5 3 6 -1 3
-10 -5 -12 -18 -15 -58 -13 l-51 3 -3 294 c-3 354 -7 341 97 341 55 0 74 -4
95 -21z"/>
</g>
</svg>
